<svg width="62" height="62" viewBox="0 0 62 62" fill="none" xmlns="http://www.w3.org/2000/svg">
<path d="M54.25 31C54.25 31.5139 54.0459 32.0067 53.6825 32.37C53.3192 32.7334 52.8264 32.9375 52.3125 32.9375H32.9375V52.3125C32.9375 52.8264 32.7334 53.3192 32.37 53.6825C32.0067 54.0459 31.5139 54.25 31 54.25C30.4861 54.25 29.9933 54.0459 29.63 53.6825C29.2666 53.3192 29.0625 52.8264 29.0625 52.3125V32.9375H9.6875C9.17364 32.9375 8.68083 32.7334 8.31748 32.37C7.95413 32.0067 7.75 31.5139 7.75 31C7.75 30.4861 7.95413 29.9933 8.31748 29.63C8.68083 29.2666 9.17364 29.0625 9.6875 29.0625H29.0625V9.6875C29.0625 9.17364 29.2666 8.68083 29.63 8.31748C29.9933 7.95413 30.4861 7.75 31 7.75C31.5139 7.75 32.0067 7.95413 32.37 8.31748C32.7334 8.68083 32.9375 9.17364 32.9375 9.6875V29.0625H52.3125C52.8264 29.0625 53.3192 29.2666 53.6825 29.63C54.0459 29.9933 54.25 30.4861 54.25 31Z" fill="black"/>
</svg>
